<?xml version="1.0" standalone="no"?><!DOCTYPE svg PUBLIC "-//W3C//DTD SVG 1.1//EN" "http://www.w3.org/Graphics/SVG/1.1/DTD/svg11.dtd"><svg t="1673179268932" class="icon" viewBox="0 0 1024 1024" version="1.1" xmlns="http://www.w3.org/2000/svg" p-id="14038" xmlns:xlink="http://www.w3.org/1999/xlink" width="200" height="200"><path d="M96 96m32 0l768 0q32 0 32 32l0 768q0 32-32 32l-768 0q-32 0-32-32l0-768q0-32 32-32Z" fill="#FFFFFF" p-id="14039"></path><path d="M448 768h128v32H256v128H224v-128H96v-32h128V224H96V192h128V96h32v96h672v32H448v128h192v32H256v384h160v-160H320v-32h96v-96h32v96h192v-128h32v160h-224v160zM416 224H256v128h160V224z m416 160V352h96v32h-96z" fill="#CACFD8" p-id="14040"></path><path d="M704 256h64a32 32 0 0 1 32 32v64a32 32 0 0 1-32 32h-64a32 32 0 0 1-32-32V288a32 32 0 0 1 32-32z m0 32v64h64V288h-64z" fill="#27A2DF" p-id="14041"></path><path d="M880 784l-144 96v-192z" fill="#30AD98" p-id="14042"></path><path d="M256 630.624v-45.248l176-176 96 96 148.672-148.704 22.656 22.656-171.328 171.296-96-96-176 176zM784 960a176 176 0 1 1 0-352 176 176 0 0 1 0 352z m0-32a144 144 0 1 0 0-288 144 144 0 0 0 0 288z m144-294.08a208.896 208.896 0 0 0-32-25.216V128H128v768h480.704c7.36 11.488 15.808 22.208 25.216 32H128a32 32 0 0 1-32-32V128a32 32 0 0 1 32-32h768a32 32 0 0 1 32 32v505.92z" fill="#5D6D7E" p-id="14043"></path></svg>