<?xml version="1.0" standalone="no"?><!DOCTYPE svg PUBLIC "-//W3C//DTD SVG 1.1//EN" "http://www.w3.org/Graphics/SVG/1.1/DTD/svg11.dtd"><svg t="1673179232097" class="icon" viewBox="0 0 1024 1024" version="1.1" xmlns="http://www.w3.org/2000/svg" p-id="13891" xmlns:xlink="http://www.w3.org/1999/xlink" width="200" height="200"><path d="M653.696 224H832v352h-132.192a304 304 0 1 1-46.08-352z" fill="#FFFFFF" p-id="13892"></path><path d="M560.128 192c16.864 9.024 32.64 19.776 47.168 32H320v352h342.784c-7.04 11.232-14.848 21.952-23.392 32H288V192h272.128z m58.496 0H864v416h-184.096c7.264-10.24 13.92-20.896 19.904-32H832V224h-178.304a305.792 305.792 0 0 0-35.072-32z" fill="#808FA1" p-id="13893"></path><path d="M700.384 387.52a273.92 273.92 0 0 1 3.168 60.32L656 379.904 574.72 496h121.696a269.888 269.888 0 0 1-9.856 32H513.28l142.72-203.904 44.384 63.392z m35.552 50.784L798.72 528h-78.176c3.456-10.432 6.4-21.12 8.704-32h8l-6.24-8.928a305.28 305.28 0 0 0 4.928-48.768z" fill="#27A2DF" p-id="13894"></path><path d="M496 464a96 96 0 1 0 0-192 96 96 0 0 0 0 192z m0-32a64 64 0 1 1 0-128 64 64 0 0 1 0 128z" fill="#30AD98" p-id="13895"></path><path d="M629.856 662.816A302.944 302.944 0 0 0 736 432a304 304 0 1 0-304 304 302.816 302.816 0 0 0 197.856-73.184z m65.376 20.128a48 48 0 0 1 58.208 7.488l158.4 158.4a48 48 0 1 1-67.904 67.872l-158.4-158.4a48 48 0 0 1-11.008-50.816l-21.984-21.984A334.72 334.72 0 0 1 432 768C246.432 768 96 617.568 96 432S246.432 96 432 96 768 246.432 768 432c0 89.664-35.104 171.104-92.352 231.36l19.584 19.584z" fill="#5D6D7E" p-id="13896"></path></svg>