<?xml version="1.0" standalone="no"?><!DOCTYPE svg PUBLIC "-//W3C//DTD SVG 1.1//EN" "http://www.w3.org/Graphics/SVG/1.1/DTD/svg11.dtd"><svg t="1673179168601" class="icon" viewBox="0 0 1024 1024" version="1.1" xmlns="http://www.w3.org/2000/svg" p-id="13601" xmlns:xlink="http://www.w3.org/1999/xlink" width="200" height="200"><path d="M512 512m-416 0a416 416 0 1 0 832 0 416 416 0 1 0-832 0Z" fill="#FFFFFF" p-id="13602"></path><path d="M512 944c238.592 0 432-193.408 432-432S750.592 80 512 80 80 273.408 80 512 273.408 944 512 944z m0-32C291.072 912 112 732.928 112 512S291.072 112 512 112 912 291.072 912 512 732.928 912 512 912z" fill="#5D6D7E" p-id="13603"></path><path d="M706.656 502.528l-288 192v-384z" fill="#27A2DF" p-id="13604"></path></svg>